# xmcd
#
# Track frame offsets: 
#        150
#        16575
#        31290
#        47620
#        69057
#        85207
#        99460
#        115500
#        130790
#        168065
#        184847
#        200747
#        216395
#        231775
#        254680
#        270702
#        284960
#        298555
#        317672
#
# Disc length: 4446 seconds
#
# Revision: 0
# Processed by: cddbd v1.5.2PL0 Copyright (c) Steve Scherf et al.
# Submitted via: ExactAudioCopy v0.99pb4
#
DISCID=10115c13
DTITLE=Kristofferson, Kris - Who's To Bless And Who's To Blame and To Th
DTITLE=e Bone
DYEAR=2009
DGENRE=Country
TTITLE0=The Year 2000 Minus 25
TTITLE1=If It's All The Same To You
TTITLE2=Easy, Come On
TTITLE3=Stallion
TTITLE4=Rocket To Stardom
TTITLE5=Stranger
TTITLE6=Who's To Bless And Who's To Blame
TTITLE7=Don't Cuss The Fiddle
TTITLE8=Silver (The Hunger)
TTITLE9=Magdalene
TTITLE10=Star-Crossed
TTITLE11=Blessing In Disguise
TTITLE12=The Devil To Pay
TTITLE13=Daddy's Song
TTITLE14=Snakebite
TTITLE15=Nobody Loves Anybody Anymore
TTITLE16=Maybe You Heard
TTITLE17=The Last Time
TTITLE18=I'll Take Any Chance I Can With You
EXTD=
EXTT0=
EXTT1=
EXTT2=
EXTT3=
EXTT4=
EXTT5=
EXTT6=
EXTT7=
EXTT8=
EXTT9=
EXTT10=
EXTT11=
EXTT12=
EXTT13=
EXTT14=
EXTT15=
EXTT16=
EXTT17=
EXTT18=
PLAYORDER=
